<svg xmlns="http://www.w3.org/2000/svg" viewBox="0 0 300 169" width="1920" height="1080"><filter id="b"><feGaussianBlur stdDeviation="10" /></filter><path fill="#060608" d="M0 0h300v168H0z"/><g filter="url(#b)" transform="translate(.6 .6) scale(1.17188)" fill-opacity=".5"><path fill="#fff" d="M62 59l9-14-53 1z"/><ellipse fill="#384560" rx="1" ry="1" transform="matrix(-12.28103 20.60161 -26.65204 -15.8878 42.8 78.9)"/><path fill="#cdccca" d="M107 82h100v2H107z"/><path fill="#0f50d3" d="M20 64l-3-26 17 22z"/><path fill="#e4e3e1" d="M39.8 51.8l13 6.6 19-1.7L54.3 45z"/><ellipse fill="#191b26" cx="127" cy="71" rx="105" ry="12"/><ellipse rx="1" ry="1" transform="matrix(120.66012 24.42348 -5.37914 26.57472 104.8 28.6)"/><path fill="#ff0" d="M25.4 96.6l-.4-.9 13.6-6.3.4.9z"/><ellipse cx="189" cy="127" rx="189" ry="35"/></g></svg>