<?xml version="1.0" encoding="utf-8"?>
<!-- Generator: Adobe Illustrator 26.2.1, SVG Export Plug-In . SVG Version: 6.00 Build 0)  -->
<svg version="1.1" id="Capa_1" xmlns="http://www.w3.org/2000/svg" xmlns:xlink="http://www.w3.org/1999/xlink" x="0px" y="0px"
	 viewBox="0 0 341.01 403.88" style="enable-background:new 0 0 341.01 403.88;" xml:space="preserve">
<style type="text/css">
	.st0{fill:#5C77FF;}
</style>
<g>
	<g>
		<path class="st0" d="M217.88,204.45c1.07-5.09,0.94-10.36-0.38-15.39c-37.54,9.77-59.26,26.39-69.26,35.89
			c-0.13,7.37,0.64,14.4,6.34,15.01C177.4,242.38,214.26,224.32,217.88,204.45z"/>
		<path class="st0" d="M183.05,166.68c-18.21-4.25-34.44-34.91-34.44-34.91v59.67c19.58-7.04,39.86-11.95,60.49-14.66
			C201.21,170.53,190.16,168.34,183.05,166.68z"/>
		<path class="st0" d="M237.58,184.79c5.12,6.08,8.25,13.58,8.96,21.5c2.93,27.14-12.7,45.93-67.79,59.03
			c28.27,15.64,63.86,5.4,79.49-22.87c4.79-8.66,7.31-18.39,7.31-28.29v-32.47C256.18,182.23,246.84,183.27,237.58,184.79z"/>
		<path class="st0" d="M231.91,186.92c-0.96-1.29-2.01-2.51-3.13-3.66l-3.08,0.61c1.09,1.21,2.09,2.5,3,3.86L231.91,186.92z"/>
		<path class="st0" d="M232.51,196.61h4.45c-0.76-2.4-1.81-4.69-3.12-6.84l-3.44,0.84C231.36,192.51,232.07,194.52,232.51,196.61z"
			/>
		<path class="st0" d="M237.88,200.58l-4.94-0.31c0.06,2.33-0.23,4.66-0.87,6.9h5.86C238.27,204.98,238.26,202.76,237.88,200.58z"/>
		<path class="st0" d="M163.63,250.02c0,0,2.32,4.02,5.06,4.89c10.03-2.3,19.81-5.53,29.24-9.66l-5.2-4.54
			C183.2,244.31,173.49,247.42,163.63,250.02z"/>
		<path class="st0" d="M224.46,179.42c-3.07-2.35-6.42-4.3-9.98-5.8h-2.11c3.34,1.75,6.47,3.88,9.33,6.34L224.46,179.42z"/>
		<path class="st0" d="M228.82,214.62c-1.08,1.8-2.29,3.53-3.63,5.15l5.97,1.66c2.03-2.68,3.72-5.6,5.01-8.71l-6.03-0.55
			C229.75,212.98,229.34,213.79,228.82,214.62z"/>
		<path class="st0" d="M206.86,234.21l5.1,3.77c4.84-2.9,9.36-6.31,13.47-10.17l-5.49-2.6
			C215.95,228.71,211.56,231.73,206.86,234.21z"/>
		<path class="st0" d="M188,185.82c-4.82,1.37-9.69,2.93-14.55,4.71l2.66,4.67c4.53-1.84,9.48-3.67,14.78-5.44L188,185.82z"/>
		<path class="st0" d="M165.98,193.47c-6.09,2.55-12.02,5.47-17.75,8.75v6.41c6.47-3.69,13.13-7.05,19.95-10.06L165.98,193.47z"/>
		<path class="st0" d="M207.84,181.16c-4.31,0.82-8.74,1.77-13.22,2.93l1.5,3.99c4.54-1.4,9.31-2.71,14.27-3.91L207.84,181.16z"/>
		<path class="st0" d="M245.08,176.86c-3.52,0.16-7.4,0.41-11.56,0.77l1.82,2.15c3.36-0.38,6.77-0.68,10.23-0.88L245.08,176.86z"/>
		<path class="st0" d="M255.11,176.59l0.44,2.02c3.3,0,6.64,0.09,10,0.28v-2.1C265.55,176.79,261.69,176.55,255.11,176.59z"/>
		<path class="st0" d="M249.75,146.82H165.9c4.82,6.35,8.89,9.77,12.85,11.45c11.52,4.89,31.55,7.63,46.91,16.74
			c13.27-1.13,26.6-1.35,39.89-0.64v-15.59C265.55,153.82,265.55,145.98,249.75,146.82z"/>
	</g>
	<g>
		<polygon class="st0" points="339.01,21.22 319.79,21.22 319.79,2 303.88,2 303.88,21.22 284.66,21.22 284.66,37.13 303.88,37.13 
			303.88,56.35 319.79,56.35 319.79,37.13 339.01,37.13 		"/>
		<path class="st0" d="M303.34,78.4c0,57.97,0,115.95,0,173.92h0.01v46.59h-0.01c0,21.08,0.01,42.17,0,63.25
			c-0.01,15.67-10.04,25.72-25.73,25.79c-7.22,0.03-14.44,0.01-22.01,0.01c-0.74-16.48-7.36-29.74-20.71-39.28
			c-9.63-6.89-20.49-9.48-32.22-8.43c-19.9,1.77-41.9,18.09-43.32,47.28c-9.33,0-18.46,0.65-27.46-0.17
			c-11.17-1.01-20.05-10.95-20.13-22.11c-0.17-22.11-0.13-44.23-0.1-66.34h-0.03v-46.59h0.01c0-63.3-0.01-126.6,0-189.9
			c0-15.94,9.96-25.89,25.93-25.96c7.21-0.03,14.42,0,21.6,0c1.62,32.32,28.09,48.48,49.22,48.04c19.59-0.41,43.2-14.73,46.86-42.76
			v-21.1c-2.89,0.03-5.79,0.07-8.68,0.08c-4.13,0.01-6.83,3.45-7.04,7.81c-0.2,3.98-0.03,8-0.48,11.95
			c-1.66,14.44-12.49,25.33-27.28,27.7c-13.16,2.11-26.88-5.35-33-17.71c-3.29-6.65-3.32-13.69-3.34-20.82
			c-0.01-6.06-2.97-9.05-8.92-9.08c-10.61-0.05-21.21-0.15-31.82,0.04c-18.22,0.34-33.96,13.15-37.93,30.9
			c-0.55,2.46-1.65,3.49-3.89,4.24C67.75,64.2,42.63,72.71,17.51,81.24C3.01,86.17-3.48,99.88,1.85,114.16
			c30.72,82.24,61.44,164.47,92.13,246.72c0.82,2.2,1.59,4.49,1.86,6.8c1.19,10.21,5.46,18.78,12.98,25.8
			c6.13,5.72,13.61,8.51,21.55,10.4c13.23,0,26.46,0,39.69,0c4.25-2.39,5.78-6,5.49-10.84c-0.41-6.77,0.32-13.41,3.49-19.61
			c6.24-12.21,20.12-19.36,33.29-17.03c14.45,2.55,25.04,13.31,26.73,27.33c0.37,3.08,0.61,6.23,0.39,9.31
			c-0.35,4.84,1.24,8.46,5.5,10.84c13.23,0,26.46,0,39.69,0c0.2-0.15,0.37-0.38,0.59-0.43c23.01-5.55,34.04-19.56,34.04-43.26
			c0-33.43,0-66.86,0-100.28c0-60.5,0-121,0-181.5H303.34z M95.57,317.38c-0.18,0.06-0.36,0.11-0.55,0.17
			c-0.45-1.07-0.94-2.12-1.34-3.2c-25.41-67.99-50.82-135.98-76.23-203.97c-3.17-8.47-1.64-11.69,6.97-14.62
			c22.28-7.57,44.57-15.13,66.87-22.67c1.26-0.43,2.57-0.71,4.28-1.18C95.57,154.14,95.57,235.76,95.57,317.38z"/>
	</g>
</g>
</svg>
